<?xml version="1.0" encoding="utf-8"?>
<!-- Generator: Adobe Illustrator 23.0.1, SVG Export Plug-In . SVG Version: 6.00 Build 0)  -->
<svg version="1.1" id="svg" xmlns="http://www.w3.org/2000/svg" xmlns:xlink="http://www.w3.org/1999/xlink" x="0px" y="0px"
	 viewBox="0 0 400 400" style="enable-background:new 0 0 400 400;" xml:space="preserve">
<style type="text/css">
	.st0{fill-rule:evenodd;clip-rule:evenodd;fill:#E3E9ED;}
</style>
<g id="svgg">
	<path id="path0" class="st0" d="M185.2,46L185,62.6l-17.9-10.3C157.3,46.6,149,42,148.8,42c-0.4,0-14.7,24.3-15.3,26
		c-0.1,0.3,7.6,5,17.1,10.5c9.5,5.4,17.4,10.1,17.4,10.3c0,0.2-7.4,4.6-16.5,9.8c-9.1,5.2-16.9,9.8-17.4,10.1
		c-0.8,0.5,0.2,2.5,4.6,10.2c10.5,18.2,9.9,17.3,11.6,16.3c0.8-0.5,9-5.3,18.3-10.6l16.8-9.7V136v21.2l-3.8,0.5
		c-48.9,6.1-88.5,53.4-88.5,105.7c0,95.8,115.4,143.4,182.9,75.3c59.8-60.2,28.1-163.8-55.3-180.5l-6.3-1.3l-0.2-21.2l-0.2-21.2
		l3.5,2c1.9,1.1,10.3,5.9,18.5,10.7c8.2,4.8,15,8.6,15.1,8.5c0.7-0.7,14.9-25.9,14.9-26.4c0-0.4-7.8-5.1-17.4-10.6l-17.4-10l3.9-2.3
		c2.1-1.2,10.1-5.8,17.7-10.2l13.8-7.9l-1.2-2c-0.7-1.1-4.1-7.1-7.7-13.2C254.1,47,251,42,250.8,42s-8.5,4.7-18.4,10.3
		c-9.9,5.7-18,10.3-18.2,10.3S214,55.2,214,46V29.3h-14.3h-14.3L185.2,46 M213.8,187.1c61.2,10.8,84.7,87.3,40.4,131.4
		c-40.4,40.2-109.7,23.7-127.8-30.4C107.8,232,155.6,176.8,213.8,187.1"/>
</g>
</svg>
